<svg xmlns="http://www.w3.org/2000/svg" xmlns:xlink="http://www.w3.org/1999/xlink" version="1.1" x="0px" y="0px" viewBox="0 0 200 200" enable-background="new 0 0 200 200" xml:space="preserve"><path fill="#000000" d="M33.944,122.878c0-9.329,7.588-16.917,16.915-16.917c9.33,0,16.92,7.588,16.92,16.917  c0,9.327-7.59,16.917-16.92,16.917C41.532,139.796,33.944,132.206,33.944,122.878z M28.458,172.097v-9.517  c0-1.026,0.832-1.859,1.859-1.859s1.859,0.833,1.859,1.859v9.517h37.366v-9.517h0.003c0-1.026,0.831-1.859,1.857-1.859  c1.027,0,1.859,0.833,1.859,1.859v9.517h11.442v-23.21c0-2.631-2.138-4.772-4.771-4.772h-58.15c-2.63,0-4.77,2.142-4.77,4.772v23.21  H28.458z M149.141,139.796c9.33,0,16.921-7.59,16.921-16.917c0-9.329-7.591-16.917-16.921-16.917  c-9.327,0-16.915,7.588-16.915,16.917C132.226,132.206,139.813,139.796,149.141,139.796z M126.739,172.097v-9.517  c0-1.026,0.832-1.859,1.858-1.859c1.028,0,1.86,0.833,1.86,1.859v9.517h37.367v-9.517h0.004c0-1.026,0.83-1.859,1.856-1.859  c1.027,0,1.858,0.833,1.858,1.859v9.517h11.442v-23.21c0-2.631-2.136-4.772-4.771-4.772h-58.15c-2.63,0-4.771,2.142-4.771,4.772  v23.21H126.739z M116.61,108.191c-21.009,9.602-36.821-5.968-46.472-2.17c0,0,8.499-5.387,0-18.443  c-8.504-13.06,0.633-27.524,9.876-32.004c14.759-7.153,33.298-8.828,46.65,2.169C145.108,72.931,142.718,96.255,116.61,108.191z   M107.614,94.1h-8.248v8.306h8.248V94.1z M117.521,71.021c0-6.526-5.399-11.629-13.171-11.629c-7.891,0-14.238,4.331-14.238,12.638  h7.653c0-3.856,2.551-5.933,6.288-5.933c3.738,0,5.756,2.373,5.756,4.984c0,1.898-1.187,3.263-2.314,4.272  c-2.789,2.551-6.229,4.093-7.356,9.314c-0.356,1.721-0.296,4.034-0.296,5.755h7.355V88.76c0-4.449,2.551-5.695,5.637-8.306  C115.564,78.141,117.521,75.174,117.521,71.021z"></path></svg>