<?xml version="1.0" encoding="utf-8"?>
<!-- Generator: Adobe Illustrator 17.1.0, SVG Export Plug-In . SVG Version: 6.00 Build 0)  -->
<!DOCTYPE svg PUBLIC "-//W3C//DTD SVG 1.1//EN" "http://www.w3.org/Graphics/SVG/1.1/DTD/svg11.dtd">
<svg version="1.1" id="Layer_1" xmlns="http://www.w3.org/2000/svg" xmlns:xlink="http://www.w3.org/1999/xlink" x="0px" y="0px"
	 viewBox="0 0 220.6 36" enable-background="new 0 0 220.6 36" xml:space="preserve">
<g>
	<path fill="#494949" d="M104,22.6h-9.4l-2.1,5.7h-0.8l7.2-19.2h0.9l7.2,19.2h-0.8L104,22.6z M94.9,21.8h8.8l-4-10.7L99.4,10h-0.1
		l-0.4,1.1L94.9,21.8z"/>
	<path fill="#494949" d="M120.7,23.8c0-1.1-0.5-2-1.4-2.7c-0.9-0.7-2.4-1.4-4.6-2.1c-2.2-0.7-3.8-1.4-4.8-2.1
		c-1-0.7-1.5-1.8-1.5-3.3c0-1.4,0.6-2.6,1.8-3.5c1.2-0.9,2.7-1.3,4.6-1.3c1.9,0,3.5,0.5,4.6,1.5c1.2,1,1.7,2.4,1.7,4.1l0,0.1h-0.6
		c0-1.4-0.5-2.6-1.6-3.6s-2.4-1.4-4.1-1.4c-1.7,0-3.1,0.4-4.1,1.2c-1,0.8-1.5,1.8-1.5,2.9s0.4,2,1.2,2.7c0.8,0.7,2.4,1.4,4.6,2
		c2.2,0.7,3.8,1.4,4.9,2.1s1.6,1.8,1.6,3.3c0,1.5-0.6,2.6-1.9,3.5s-2.8,1.3-4.7,1.3c-1.9,0-3.6-0.5-5-1.4c-1.4-0.9-2.1-2.3-2-4.3
		l0-0.1h0.6c0,1.7,0.6,3,1.9,3.8c1.3,0.8,2.8,1.2,4.4,1.2s3.1-0.4,4.2-1.2C120.1,25.9,120.7,24.9,120.7,23.8z"/>
	<path fill="#494949" d="M136.1,23.8c0-1.1-0.5-2-1.4-2.7c-0.9-0.7-2.4-1.4-4.6-2.1c-2.2-0.7-3.8-1.4-4.8-2.1
		c-1-0.7-1.5-1.8-1.5-3.3c0-1.4,0.6-2.6,1.8-3.5c1.2-0.9,2.7-1.3,4.6-1.3c1.9,0,3.5,0.5,4.6,1.5c1.2,1,1.7,2.4,1.7,4.1l0,0.1h-0.6
		c0-1.4-0.5-2.6-1.6-3.6s-2.4-1.4-4.1-1.4c-1.7,0-3.1,0.4-4.1,1.2c-1,0.8-1.5,1.8-1.5,2.9s0.4,2,1.2,2.7c0.8,0.7,2.4,1.4,4.6,2
		c2.2,0.7,3.8,1.4,4.9,2.1s1.6,1.8,1.6,3.3c0,1.5-0.6,2.6-1.9,3.5s-2.8,1.3-4.7,1.3c-1.9,0-3.6-0.5-5-1.4c-1.4-0.9-2.1-2.3-2-4.3
		l0-0.1h0.6c0,1.7,0.6,3,1.9,3.8c1.3,0.8,2.8,1.2,4.4,1.2s3.1-0.4,4.2-1.2C135.6,25.9,136.1,24.9,136.1,23.8z"/>
	<path fill="#494949" d="M150.2,18.6H141v8.9h10.6v0.7h-11.3V9.1h11.3v0.7H141v8.1h9.2V18.6z"/>
	<path fill="#494949" d="M163.4,27.2L163.4,27.2l8.1-18.1h0.8v19.2h-0.7V10.8l-0.1,0l-7.8,17.5h-0.6l-7.9-17.8l-0.1,0v17.8h-0.7V9.1
		h1L163.4,27.2z"/>
	<path fill="#494949" d="M176.9,28.3V9.1h5c2,0,3.5,0.4,4.6,1.2s1.6,2,1.6,3.7c0,1.1-0.3,2-0.8,2.7c-0.5,0.8-1.3,1.3-2.2,1.5l0,0.1
		c1.1,0.1,2.1,0.7,2.9,1.6c0.8,0.9,1.2,1.9,1.2,3.1c0,1.7-0.5,3-1.6,3.9c-1.1,0.9-2.5,1.4-4.3,1.4H176.9z M177.6,18.1h4.9
		c1.7,0,2.9-0.4,3.8-1.1c0.8-0.7,1.3-1.7,1.3-3.1c0-1.4-0.5-2.4-1.4-3.1c-0.9-0.7-2.3-1-4.1-1h-4.3V18.1z M177.6,18.8v8.8h5.7
		c1.6,0,2.9-0.4,3.8-1.2s1.4-1.9,1.4-3.3c0-1.3-0.5-2.3-1.4-3.1s-2.2-1.2-3.8-1.2H177.6z"/>
	<path fill="#494949" d="M193.2,27.6h10.4v0.7h-11.1V9.1h0.7V27.6z"/>
	<path fill="#494949" d="M208.6,19.8l0.3,0.7l0.4-0.7l6.4-10.7h0.9L209.3,21v7.3h-0.7V21l-7.2-11.9h0.9L208.6,19.8z"/>
</g>
<g>
	<path fill="#FF66CC" d="M16.3,28.8v2.7h3.1c0,0.7,0.2,1.2,0.6,1.5c0.4,0.3,0.8,0.4,1.5,0.4c0.4,0,0.7-0.1,1-0.3
		c0.3-0.2,0.4-0.5,0.4-1c0-0.3-0.2-0.6-0.6-0.9s-1.1-0.5-2.1-0.7c-1.6-0.3-2.8-0.8-3.6-1.5C16.5,29,16.4,28.9,16.3,28.8z"/>
	<path fill="#FF66CC" d="M22.7,27.5c1.5,0.3,2.7,0.7,3.5,1.3c-0.6-0.6-0.9-1.4-0.9-2.3h-2.5c0-0.5-0.1-1-0.4-1.2
		c-0.3-0.3-0.7-0.4-1.3-0.4c-0.3,0-0.6,0.1-0.8,0.2c-0.2,0.2-0.3,0.5-0.3,0.8c0,0.4,0.2,0.7,0.5,1C20.8,27,21.6,27.3,22.7,27.5z"/>
	<path fill="#FF66CC" d="M10.3,33.1c0.2-0.1,0.4-0.1,0.6-0.2c0.4-0.2,0.7-0.5,0.8-0.9v-1.8H10c-0.7,0-1.2,0.2-1.5,0.5
		c-0.1,0.2-0.3,0.3-0.3,0.6c-0.1,0.2-0.1,0.4-0.1,0.6c0,0.4,0.1,0.7,0.4,1c0.3,0.3,0.6,0.4,1.1,0.4C9.8,33.2,10.1,33.1,10.3,33.1z"
		/>
	<path fill="#FF66CC" d="M4.9,35.2C4,34.4,3.6,33.4,3.6,32c0-1.4,0.5-2.5,1.6-3.3c1.1-0.8,2.7-1.2,4.8-1.2h1.7v-0.7
		c0-0.6-0.1-1-0.4-1.3C11,25.2,10.6,25,10,25c-0.5,0-0.9,0.1-1.1,0.3c-0.1,0.1-0.2,0.3-0.3,0.4c0,0.1-0.1,0.2-0.1,0.4h0
		c0,0.1,0,0.2,0,0.3l-3,0L0,36h6.3C5.7,35.8,5.3,35.5,4.9,35.2z"/>
	<path fill="#FF66CC" d="M29.8,32.9c0.4,0.3,0.9,0.4,1.5,0.4c0.4,0,0.8-0.1,1-0.3c0.3-0.2,0.4-0.5,0.4-1c0-0.3-0.2-0.6-0.6-0.9
		c-0.4-0.3-1.1-0.5-2.1-0.7c-1.4-0.3-2.5-0.7-3.2-1.2c0.6,0.6,0.9,1.3,1,2.2h1.4C29.2,32.2,29.4,32.6,29.8,32.9z"/>
	<path fill="#FF66CC" d="M10.4,21.5c1.8,0,3.2,0.4,4.3,1.3c0.5,0.4,1,1,1.2,1.6c0.2-0.3,0.4-0.5,0.6-0.8c0.2-0.3,0.5-0.6,0.8-0.8
		c1.1-0.9,2.5-1.3,4.3-1.3c1.9,0,3.4,0.4,4.5,1.3c0.2,0.2,0.4,0.3,0.5,0.5c0.1-0.2,0.3-0.3,0.4-0.4c1.1-0.9,2.5-1.3,4.3-1.3
		c0.7,0,1.4,0.1,2,0.2L20.8,0L8.2,21.8C8.9,21.6,9.6,21.5,10.4,21.5z"/>
	<g>
		<path fill="#FF66CC" d="M39.3,36h2.3l-1.1-2c0,0.1,0,0.2,0,0.3c0,0.5-0.2,0.9-0.5,1.3C39.8,35.8,39.6,35.9,39.3,36z"/>
		<path fill="#FF66CC" d="M37.6,31.9c0,0.4-0.1,0.8-0.2,1.2c0,0,0,0,0,0c0.4-0.4,0.8-0.5,1.3-0.5c0.4,0,0.8,0.1,1.2,0.4l-3.8-6.5
			h-3.5c0-0.5-0.1-1-0.4-1.2s-0.7-0.4-1.3-0.4c-0.3,0-0.6,0.1-0.9,0.2c-0.2,0.2-0.3,0.5-0.3,0.8c0,0.4,0.2,0.7,0.5,1
			c0.4,0.3,1.1,0.5,2.2,0.7c1.7,0.3,3,0.9,3.9,1.5C37.2,29.7,37.6,30.7,37.6,31.9z"/>
	</g>
</g>
<g>
	<path fill="#FF66CC" d="M55.6,28.3h-4.4V9.1h4.4V28.3z"/>
	<path fill="#FF66CC" d="M74.3,28.3h-4.4l-7-12.1l-0.1,0v12h-4.5V9.1h4.5l7,12.1l0.1,0v-12h4.4V28.3z"/>
	<path fill="#FF66CC" d="M82.4,20.6h-1.2v7.7h-4.5V9.1h4.5v7.5h0.9l4.3-7.5H92l-6,8.7l6.6,10.5h-5.7L82.4,20.6z"/>
	<g>
		<path fill="#FF66CC" d="M47.1,10.8c-1.3-1.2-3.1-1.7-5.4-1.7h-7.3v11l4.5,7.7v-6.1h2.9c2.3,0,4.1-0.6,5.4-1.7c1.3-1.2,2-2.7,2-4.6
			S48.5,12,47.1,10.8z M43.9,17.5c-0.5,0.5-1.2,0.8-2.2,0.8h-2.9v-5.8h2.9c1,0,1.7,0.3,2.2,0.8c0.5,0.5,0.8,1.2,0.8,2.1
			C44.7,16.3,44.4,17,43.9,17.5z"/>
	</g>
</g>
<g>
</g>
<g>
</g>
<g>
</g>
<g>
</g>
<g>
</g>
<g>
</g>
</svg>
