<?xml version="1.0" encoding="utf-8"?>
<!-- Generator: Adobe Illustrator 17.1.0, SVG Export Plug-In . SVG Version: 6.00 Build 0)  -->
<!DOCTYPE svg PUBLIC "-//W3C//DTD SVG 1.1//EN" "http://www.w3.org/Graphics/SVG/1.1/DTD/svg11.dtd">
<svg version="1.1" id="Layer_1" xmlns="http://www.w3.org/2000/svg" xmlns:xlink="http://www.w3.org/1999/xlink" x="0px" y="0px"
	 viewBox="0 0 270 240" enable-background="new 0 0 270 240" xml:space="preserve">
<g>
	<path fill="#FF66CC" d="M107.1,184.7v17h19.2c0.1,4.2,1.4,7.3,3.8,9.1c2.2,1.7,5.3,2.6,9.2,2.7c2.5-0.2,4.7-0.8,6.1-1.9
		c1.8-1.4,2.8-3.4,2.8-6c0-2.1-1.2-4-3.6-5.7s-6.8-3.2-13.1-4.5c-10-2-17.5-5-22.6-9.1C108.2,186,107.7,185.3,107.1,184.7z"/>
	<path fill="#FF66CC" d="M146.7,176.8c9.4,1.9,16.6,4.5,21.8,8c-3.7-3.7-5.6-8.5-5.8-14.4h-15.4c0-3.4-0.9-6-2.5-7.7
		c-1.7-1.7-4.5-2.6-8.3-2.6c-2,0-3.7,0.5-5.2,1.3c-1.2,1.4-1.8,3-1.8,5c0,2.4,1.1,4.4,3.4,6C135.2,174,139.8,175.4,146.7,176.8z"/>
	<path fill="#FF66CC" d="M69.4,211.6c1.3-0.4,2.5-0.8,3.6-1.5c2.5-1.5,4.3-3.4,5.3-5.5v-11.3H67.4c-4.3,0-7.4,1-9.3,3.1
		c-0.9,1-1.6,2.2-2.1,3.5c-0.4,1.2-0.6,2.5-0.6,3.9c0,2.5,0.9,4.6,2.6,6.1c1.7,1.6,4,2.3,6.7,2.3C66.4,212.2,67.9,212,69.4,211.6z"
		/>
	<path fill="#FF66CC" d="M35.4,224.8c-5.2-4.8-7.8-11.4-7.8-19.6c0-8.8,3.3-15.7,10-20.5c6.6-4.8,16.7-7.2,30.2-7.2h10.4v-4.6
		c0-3.6-0.9-6.5-2.6-8.4c-1.7-2-4.4-2.9-8-2.9c-3.1,0-5.4,0.7-6.9,2.2c-0.7,0.7-1.3,1.6-1.7,2.7c-0.1,0.7-0.3,1.4-0.3,2.2h0
		c-0.1,0.6-0.3,1.1-0.3,1.8l-19-0.1L5,230h39.2C40.8,228.8,37.9,227.1,35.4,224.8z"/>
	<path fill="#FF66CC" d="M191.4,210.9c2.2,1.7,5.3,2.6,9.3,2.7c2.5-0.2,4.7-0.8,6.2-1.9c1.8-1.4,2.8-3.4,2.8-6c0-2.1-1.2-4-3.6-5.7
		c-2.4-1.7-6.8-3.2-13.1-4.5c-8.6-1.7-15.3-4.2-20.3-7.5c3.5,3.5,5.5,8.1,5.9,13.7h9C187.7,206,188.9,209,191.4,210.9z"/>
	<path fill="#FF66CC" d="M70.1,139.5c11,0,20,2.7,26.8,8.2c3.4,2.7,5.9,6,7.7,9.9c1-1.7,2.2-3.3,3.7-4.8c1.4-1.8,2.9-3.6,4.9-5.2
		c6.6-5.5,15.5-8.2,26.8-8.2c11.9,0,21.3,2.7,28.4,8c1.3,0.9,2.3,2,3.3,3.1c0.9-1,1.7-1.9,2.8-2.8c6.6-5.5,15.5-8.2,26.8-8.2
		c4.5,0,8.6,0.5,12.4,1.3L135,5L56.4,141.1C60.5,140.1,65,139.5,70.1,139.5z"/>
	<path fill="#FF66CC" d="M229.3,224.3c-3.5,2.5-7.5,4.4-12.1,5.7H265l-34.5-59.6h-21.8c0-3.4-0.8-6-2.5-7.7s-4.5-2.6-8.3-2.6
		c-2.1,0-3.9,0.6-5.5,1.5c-1.1,1.4-1.6,2.9-1.6,4.8c0,2.4,1.1,4.4,3.4,6c2.3,1.6,6.9,3.1,13.8,4.4c10.9,2.1,19,5.3,24.2,9.6
		c5.2,4.3,7.8,10.3,7.8,18.1C240,212.5,236.4,219.1,229.3,224.3z"/>
</g>
</svg>
