<svg xmlns="http://www.w3.org/2000/svg" xmlns:xlink="http://www.w3.org/1999/xlink" version="1.1" x="0px" y="0px" viewBox="0 0 100 125" enable-background="new 0 0 100 100" xml:space="preserve"><g><path fill="#000000" d="M42.264,57.226c0.103,0.199,0.223,0.382,0.355,0.549l1.046,6.831l2.84,28.295c0,1.241,1.008,2.1,2.25,2.1   h3.232c1.242,0,2.25-0.858,2.25-2.1l2.842-28.295h1.152c2.04,0,3.692-1.734,3.692-3.771l-2.093-14.211   c0-2.038-1.651-3.52-3.692-3.52H44.607c-0.718,0-1.385,0.186-1.952,0.512l-4.379-8.668c-0.785-1.548-2.671-2.167-4.22-1.385   l-0.187,0.093c-1.546,0.783-2.167,2.671-1.383,4.218L42.264,57.226z"/><circle fill="#000000" cx="50.374" cy="34.439" r="6.19"/><path fill="#000000" d="M73.77,51.387h-6.226c-1.101,0-1.993,0.923-1.993,2.022l-1.129,10.022c0,1.101,0.895,1.986,1.995,1.986   h0.62l1.531,12.886c0,0.667,0.546,1.147,1.215,1.147h1.745c0.668,0,1.214-0.48,1.214-1.147l1.534-12.886h0.62   c1.101,0,1.993-0.886,1.993-1.986l-1.127-10.022C75.76,52.31,74.868,51.387,73.77,51.387z"/><circle fill="#000000" cx="70.658" cy="46.959" r="3.34"/><path fill="#000000" d="M34.563,53.409c0-1.1-0.893-2.022-1.993-2.022h-6.226c-1.1,0-1.992,0.923-1.992,2.022l-1.129,10.022   c0,1.101,0.893,1.986,1.993,1.986h0.622l1.533,12.886c0,0.667,0.543,1.147,1.213,1.147h1.744c0.669,0,1.214-0.48,1.214-1.147   l1.535-12.886h0.621c1.101,0,1.992-0.886,1.992-1.986L34.563,53.409z"/><circle fill="#000000" cx="29.46" cy="46.959" r="3.34"/><path fill="#000000" d="M87.589,54.426c0-0.962-0.781-1.772-1.743-1.772h-5.447c-0.961,0-1.742,0.811-1.742,1.772l-0.985,8.771   c0,0.962,0.779,1.737,1.741,1.737h0.543l1.342,11.275c0,0.585,0.476,1.001,1.063,1.001h1.527c0.582,0,1.063-0.416,1.063-1.001   l1.341-11.275h0.544c0.962,0,1.742-0.775,1.742-1.737L87.589,54.426z"/><circle fill="#000000" cx="83.125" cy="48.783" r="2.922"/><path fill="#000000" d="M19.599,52.653h-5.445c-0.963,0-1.746,0.811-1.746,1.772l-0.985,8.771c0,0.962,0.779,1.737,1.741,1.737   h0.543l1.341,11.275c0,0.585,0.476,1.001,1.063,1.001h1.526c0.585,0,1.063-0.416,1.063-1.001l1.342-11.275h0.543   c0.96,0,1.741-0.775,1.741-1.737l-0.987-8.771C21.341,53.464,20.561,52.653,19.599,52.653z"/><circle fill="#000000" cx="16.878" cy="48.783" r="2.922"/><g><g><g><g><path fill="#000000" d="M51.73,23.505c0.095,0,0.174-0.087,0.174-0.189v-0.184c0-0.104-0.079-0.19-0.174-0.19h-2.708       c-0.098,0-0.176,0.086-0.176,0.19v0.184c0,0.104,0.079,0.189,0.176,0.189H51.73z"/></g></g><g><g><path fill="#000000" d="M51.73,22.719c0.095,0,0.174-0.084,0.174-0.189v-0.182c0-0.106-0.079-0.192-0.174-0.192h-2.708       c-0.098,0-0.176,0.086-0.176,0.192v0.182c0,0.105,0.079,0.189,0.176,0.189H51.73z"/></g></g><g><g><path fill="#000000" d="M51.267,23.725c-0.162,0.327-0.501,0.555-0.886,0.555c-0.393,0-0.734-0.23-0.905-0.555H51.267       L51.267,23.725z"/></g></g><g><path fill="#000000" d="M50.375,11.693c-2.087,0-3.781,1.693-3.781,3.781c0,0.688,0.191,1.327,0.502,1.891      c0.929,1.672,1.178,2.724,1.327,3.634c0.125,0.761,0.304,0.939,0.875,0.939c0.247,0,0.65,0,1.076,0c0.425,0,0.827,0,1.071,0      c0.577,0,0.753-0.179,0.878-0.939c0.151-0.91,0.398-1.96,1.325-3.634c0.309-0.561,0.504-1.199,0.504-1.891      C54.156,13.387,52.462,11.693,50.375,11.693z"/></g></g><g><path fill="#000000" d="M50.375,9.481c-0.415,0-0.756-0.339-0.756-0.757V5.756C49.619,5.338,49.961,5,50.375,5     c0.417,0,0.756,0.339,0.756,0.756v2.97C51.132,9.145,50.793,9.481,50.375,9.481z"/></g><g><path fill="#000000" d="M45.377,11.548c-0.195,0-0.387-0.074-0.535-0.22l-2.099-2.103c-0.294-0.293-0.294-0.773,0-1.067     c0.294-0.295,0.775-0.295,1.068,0l2.101,2.1c0.294,0.295,0.294,0.774,0,1.07C45.765,11.472,45.572,11.548,45.377,11.548z"/></g><g><path fill="#000000" d="M55.373,11.548c-0.195,0-0.388-0.074-0.537-0.22c-0.295-0.296-0.295-0.775,0-1.07l2.106-2.1     c0.29-0.295,0.77-0.295,1.064,0c0.296,0.294,0.296,0.774,0,1.067l-2.1,2.103C55.758,11.472,55.56,11.548,55.373,11.548z"/></g><g><path fill="#000000" d="M59.419,16.086h-2.968c-0.42,0-0.759-0.341-0.759-0.759c0-0.415,0.339-0.755,0.759-0.755h2.968     c0.42,0,0.756,0.34,0.756,0.755C60.175,15.744,59.842,16.086,59.419,16.086z"/></g><g><path fill="#000000" d="M44.3,16.086h-2.974c-0.417,0-0.755-0.341-0.755-0.759c0-0.415,0.337-0.755,0.755-0.755H44.3     c0.415,0,0.755,0.34,0.755,0.755C45.055,15.744,44.716,16.086,44.3,16.086z"/></g></g></g></svg>